<svg width="34" height="23" viewBox="0 0 34 23" fill="none" xmlns="http://www.w3.org/2000/svg">
<g clip-path="url(#clip0_1_126)">
<g clip-path="url(#clip1_1_126)">
<path d="M21.76 2.66992H14.26C13.1267 2.66992 12.0733 2.95659 11.1 3.52992C10.1533 4.07659 9.40667 4.82326 8.86 5.76992C8.28667 6.72992 8 7.77659 8 8.90992V16.4099C8 17.5433 8.28667 18.5966 8.86 19.5699C9.40667 20.5166 10.1533 21.2633 11.1 21.8099C12.0733 22.3833 13.1267 22.6699 14.26 22.6699H21.76C22.8933 22.6699 23.94 22.3833 24.9 21.8099C25.8467 21.2633 26.5933 20.5166 27.14 19.5699C27.7133 18.5966 28 17.5433 28 16.4099V8.90992C28 7.77659 27.7133 6.72992 27.14 5.76992C26.5933 4.82326 25.8467 4.07659 24.9 3.52992C23.94 2.95659 22.8933 2.66992 21.76 2.66992ZM26.12 16.4099C26.12 17.1966 25.9233 17.9266 25.53 18.5999C25.1367 19.2733 24.6067 19.8066 23.94 20.1999C23.2733 20.5933 22.5467 20.7899 21.76 20.7899H14.26C13.46 20.7899 12.7267 20.5933 12.06 20.1999C11.3933 19.8066 10.8633 19.2766 10.47 18.6099C10.0767 17.9433 9.88 17.2099 9.88 16.4099V8.90992C9.88 8.12326 10.0767 7.39659 10.47 6.72992C10.8633 6.06326 11.3967 5.53326 12.07 5.13992C12.7433 4.74659 13.4733 4.54992 14.26 4.54992H21.76C22.5467 4.54992 23.2733 4.74659 23.94 5.13992C24.6067 5.53326 25.1367 6.06326 25.53 6.72992C25.9233 7.39659 26.12 8.12326 26.12 8.90992V16.4099ZM18 7.66992C17.0933 7.66992 16.2567 7.89326 15.49 8.33992C14.7233 8.78659 14.1167 9.39326 13.67 10.1599C13.2233 10.9266 13 11.7633 13 12.6699C13 13.5766 13.2233 14.4133 13.67 15.1799C14.1167 15.9466 14.7233 16.5533 15.49 16.9999C16.2567 17.4466 17.0933 17.6699 18 17.6699C18.9067 17.6699 19.7433 17.4466 20.51 16.9999C21.2767 16.5533 21.8833 15.9466 22.33 15.1799C22.7767 14.4133 23 13.5766 23 12.6699C23 11.7633 22.7767 10.9266 22.33 10.1599C21.8833 9.39326 21.2767 8.78659 20.51 8.33992C19.7433 7.89326 18.9067 7.66992 18 7.66992ZM18 15.7899C17.44 15.7899 16.92 15.6499 16.44 15.3699C15.96 15.0899 15.58 14.7099 15.3 14.2299C15.02 13.7499 14.88 13.2299 14.88 12.6699C14.88 12.1099 15.02 11.5899 15.3 11.1099C15.58 10.6299 15.96 10.2499 16.44 9.96992C16.92 9.68992 17.44 9.54992 18 9.54992C18.56 9.54992 19.08 9.68992 19.56 9.96992C20.04 10.2499 20.42 10.6299 20.7 11.1099C20.98 11.5899 21.12 12.1099 21.12 12.6699C21.12 13.2299 20.98 13.7499 20.7 14.2299C20.42 14.7099 20.04 15.0899 19.56 15.3699C19.08 15.6499 18.56 15.7899 18 15.7899ZM23.38 6.62992C23.5667 6.62992 23.7233 6.69326 23.85 6.81992C23.9767 6.94659 24.04 7.10326 24.04 7.28992C24.04 7.47659 23.9733 7.63659 23.84 7.76992C23.7067 7.90326 23.55 7.96992 23.37 7.96992C23.19 7.96992 23.0333 7.90326 22.9 7.76992C22.7667 7.63659 22.7 7.47659 22.7 7.28992C22.7 7.10326 22.7667 6.94659 22.9 6.81992C23.0333 6.69326 23.1933 6.62992 23.38 6.62992Z" fill="black"/>
</g>
</g>
<defs>
<clipPath id="clip0_1_126">
<rect width="34" height="23" fill="white"/>
</clipPath>
<clipPath id="clip1_1_126">
<rect width="20" height="40" fill="white" transform="matrix(1 0 0 -1 8 32.6699)"/>
</clipPath>
</defs>
</svg>
