<svg width="1052" height="377" viewBox="0 0 1052 377" fill="none" xmlns="http://www.w3.org/2000/svg">
<path d="M193.707 328.282C221.262 324.773 247.98 312.502 269.131 291.351C292.277 268.205 304.785 238.51 306.783 208.3C306.805 207.932 306.595 207.915 306.517 208.221C304.117 220.274 294.056 251.405 261.621 283.839C233.435 312.026 209.333 323.55 193.659 327.994C193.371 328.092 193.444 328.307 193.707 328.282ZM260.822 270.306C283.367 247.762 301.956 217.104 304.608 190.122C305.348 182.753 304.798 174.48 302.329 165.092C300.909 159.69 298.803 153.69 296.406 148.12C296.282 147.855 296.068 147.881 296.14 148.245C302.638 182.3 286.914 222.641 245.716 263.838C216.596 292.959 164.423 327.184 134.375 321.67C134.09 321.627 134.04 321.818 134.302 321.933C170.019 334.795 217.994 313.134 260.822 270.306ZM213.582 235.057C166.695 281.944 105.025 302.062 86.1121 291.17C85.847 291.004 85.7521 291.194 85.9459 291.387C90.9628 296.404 97.9393 302.377 103.101 305.81C105.605 307.49 110.59 309.07 115.703 309.191C138.891 309.672 183.779 297.948 232.801 248.927C299.591 182.137 292.614 144.617 288.416 134.182C285.414 126.719 277.113 116.108 269.169 108.165C267.247 106.243 265.664 104.755 264.084 103.321C263.839 103.076 263.678 103.198 263.867 103.485C278.432 124.726 262.894 185.745 213.582 235.057ZM55.4922 243.27C58.1375 251.289 64.1547 263.262 67.925 268.803C69.5316 271.186 70.6549 271.979 72.843 272.768C90.3863 279.071 125.308 280.393 191.614 214.087C232.066 173.635 266.134 121.603 253.09 98.3763C250.689 94.1003 247.214 90.5252 241.26 86.9799C234.607 83.018 225.898 79.3489 219.419 77.1358C219.207 77.0645 219.104 77.2098 219.297 77.3519C243.875 100.346 208.383 165.764 174.914 199.233C138.661 235.486 78.4628 267.531 60.2245 249.293C58.4721 247.54 57.082 245.425 55.7105 243.148C55.5894 242.936 55.4192 243.051 55.4922 243.27ZM169.566 70.7867C170.554 71.005 171.39 71.4568 172.257 72.3234C182.432 82.4981 190.071 114.959 140.5 164.53C104.077 200.953 62.9655 210.939 54.3725 202.346C51.3009 199.275 49.336 194.954 48.7385 189.167C48.6904 188.836 48.497 188.883 48.4747 189.188C47.7529 197.93 47.9173 206.79 48.9742 215.474C49.4554 219.6 50.3648 222.772 51.5874 223.995C69.3949 241.802 112.258 221.874 154.008 180.124C198.494 135.638 218.526 89.4487 205.764 76.6863C201.202 72.1251 196.764 71.238 187.06 70.6178C180.754 70.2079 175.231 70.2623 169.587 70.5225C169.327 70.5474 169.323 70.7426 169.566 70.7867ZM145.756 74.2522C123.797 79.7521 103.172 91.0135 85.9837 108.202C68.6757 125.51 57.0976 146.779 51.766 169.005C50.1768 175.681 49.8889 180.046 52.5092 182.666C60.2334 190.39 86.5901 180.644 118.616 148.618C150.31 116.924 165.795 83.2453 157.039 74.4888C154.948 72.3987 151.659 72.7632 145.756 74.2522Z" fill="url(#paint0_linear_6_13)"/>
<path d="M492.72 74.62V208H460.61L405.89 125.16V208H373.78V74.62H405.89L460.61 158.03V74.62H492.72ZM567.96 209.33C560.233 209.33 552.823 208.127 545.73 205.72C538.763 203.313 532.557 199.83 527.11 195.27C521.79 190.583 517.547 184.947 514.38 178.36C511.34 171.773 509.82 164.237 509.82 155.75C509.82 147.643 511.277 140.233 514.19 133.52C517.23 126.807 521.283 120.98 526.35 116.04C531.543 111.1 537.497 107.3 544.21 104.64C551.05 101.98 558.27 100.65 565.87 100.65C572.077 100.65 577.967 101.473 583.54 103.12C589.24 104.767 594.307 107.173 598.74 110.34C603.3 113.507 606.847 117.243 609.38 121.55C612.04 125.857 613.37 130.67 613.37 135.99C613.37 142.703 611.47 148.277 607.67 152.71C603.87 157.143 598.867 160.627 592.66 163.16C586.58 165.693 579.867 167.53 572.52 168.67C565.3 169.683 558.143 170.127 551.05 170C550.163 170 549.087 170 547.82 170C546.68 169.873 545.603 169.81 544.59 169.81C543.577 169.683 542.817 169.62 542.31 169.62C543.07 172.533 544.653 175.193 547.06 177.6C549.593 179.88 552.76 181.717 556.56 183.11C560.36 184.503 564.287 185.2 568.34 185.2C572.393 185.2 576.257 184.503 579.93 183.11C583.73 181.717 587.15 179.943 590.19 177.79C593.23 175.637 595.827 173.23 597.98 170.57L618.5 186.72C614.7 191.787 610.077 196.03 604.63 199.45C599.183 202.743 593.293 205.213 586.96 206.86C580.753 208.507 574.42 209.33 567.96 209.33ZM551.24 148.91C554.66 148.91 558.207 148.72 561.88 148.34C565.553 147.96 568.91 147.327 571.95 146.44C575.117 145.427 577.65 144.097 579.55 142.45C581.577 140.677 582.59 138.46 582.59 135.8C582.59 133.647 581.83 131.747 580.31 130.1C578.79 128.453 576.763 127.187 574.23 126.3C571.697 125.413 568.973 124.97 566.06 124.97C560.993 124.97 556.56 126.173 552.76 128.58C548.96 130.987 546.047 134.027 544.02 137.7C541.993 141.247 540.853 144.857 540.6 148.53C541.74 148.657 543.26 148.783 545.16 148.91C547.187 148.91 549.213 148.91 551.24 148.91ZM622.901 101.98H658.811L732.151 208H696.241L622.901 101.98ZM682.561 166.39L658.621 208H623.851L666.031 142.64L682.561 166.39ZM673.441 141.5L696.621 101.98H731.391L689.211 165.44L673.441 141.5ZM790.094 209.33C778.44 209.33 769.51 206.163 763.304 199.83C757.097 193.37 753.994 184.06 753.994 171.9V128.01H737.084V101.98H807.194V128.01H786.104V172.28C786.104 175.32 787.054 177.727 788.954 179.5C790.98 181.147 793.387 181.97 796.174 181.97C797.44 181.97 798.58 181.843 799.594 181.59C800.734 181.21 801.81 180.703 802.824 180.07L810.804 203.63C807.764 205.277 804.534 206.67 801.114 207.81C797.82 208.823 794.147 209.33 790.094 209.33ZM745.444 110.53V101.98C748.23 101.98 750.51 101.093 752.284 99.32C754.057 97.5467 754.944 95.2667 754.944 92.48V76.14H786.104V87.54C786.104 89.3133 785.66 91.2767 784.774 93.43C783.887 95.4567 782.494 97.2933 780.594 98.94C778.82 100.46 776.667 101.473 774.134 101.98L745.444 110.53ZM828.356 208V182.35H842.986V100.27H828.356V74.62H889.726V100.27H875.096V182.35H889.726V208H828.356ZM1030.59 233.27C1026.29 233.27 1021.47 232.447 1016.15 230.8C1010.83 229.153 1005.83 226.43 1001.14 222.63C996.584 218.83 993.037 213.637 990.504 207.05L1015.77 193.94C1018.05 197.74 1020.65 200.463 1023.56 202.11C1026.48 203.757 1029.96 204.58 1034.01 204.58C1035.28 204.58 1036.61 204.517 1038 204.39C1039.4 204.263 1040.73 204.01 1041.99 203.63V231.37C1040.47 231.877 1038.7 232.32 1036.67 232.7C1034.77 233.08 1032.75 233.27 1030.59 233.27ZM975.684 209.33C966.31 209.33 957.507 207.683 949.274 204.39C941.04 200.97 933.757 196.22 927.424 190.14C921.09 184.06 916.15 176.903 912.604 168.67C909.184 160.31 907.474 151.19 907.474 141.31C907.474 131.303 909.184 122.183 912.604 113.95C916.15 105.717 921.09 98.56 927.424 92.48C933.757 86.4 941.04 81.7133 949.274 78.42C957.507 75 966.31 73.29 975.684 73.29C985.184 73.29 994.05 75 1002.28 78.42C1010.52 81.7133 1017.74 86.4 1023.94 92.48C1030.28 98.56 1035.15 105.717 1038.57 113.95C1042.12 122.183 1043.89 131.303 1043.89 141.31C1043.89 151.19 1042.12 160.31 1038.57 168.67C1035.15 176.903 1030.28 184.06 1023.94 190.14C1017.74 196.22 1010.52 200.97 1002.28 204.39C994.05 207.683 985.184 209.33 975.684 209.33ZM975.684 180.07C982.904 180.07 989.174 178.487 994.494 175.32C999.814 172.027 1003.93 167.467 1006.84 161.64C1009.88 155.813 1011.4 149.037 1011.4 141.31C1011.4 133.33 1009.88 126.49 1006.84 120.79C1003.93 114.963 999.814 110.467 994.494 107.3C989.174 104.133 982.904 102.55 975.684 102.55C968.464 102.55 962.194 104.133 956.874 107.3C951.554 110.467 947.437 114.963 944.524 120.79C941.61 126.49 940.154 133.33 940.154 141.31C940.154 149.037 941.61 155.813 944.524 161.64C947.437 167.467 951.554 172.027 956.874 175.32C962.194 178.487 968.464 180.07 975.684 180.07Z" fill="black"/>
<path d="M364.64 256.928H413.728V264.832H393.968V329H384.4V264.832H364.64V256.928ZM443.369 329.728C438.931 329.728 434.841 329.035 431.097 327.648C427.422 326.261 424.233 324.32 421.529 321.824C418.825 319.259 416.745 316.208 415.289 312.672C413.833 309.136 413.105 305.184 413.105 300.816C413.105 296.517 413.902 292.565 415.497 288.96C417.161 285.355 419.379 282.235 422.153 279.6C424.995 276.896 428.219 274.816 431.825 273.36C435.499 271.904 439.313 271.176 443.265 271.176C446.801 271.176 450.025 271.661 452.937 272.632C455.849 273.533 458.345 274.816 460.425 276.48C462.574 278.144 464.203 280.051 465.313 282.2C466.491 284.349 467.081 286.707 467.081 289.272C467.081 292.877 466.075 295.893 464.065 298.32C462.054 300.677 459.385 302.549 456.057 303.936C452.729 305.253 449.054 306.189 445.033 306.744C441.081 307.229 437.094 307.403 433.073 307.264C431.963 307.264 430.75 307.229 429.433 307.16C428.115 307.091 426.902 307.021 425.793 306.952C424.683 306.813 423.817 306.709 423.193 306.64C423.609 309.344 424.718 311.84 426.521 314.128C428.323 316.416 430.681 318.219 433.593 319.536C436.505 320.853 439.763 321.512 443.369 321.512C446.142 321.512 448.777 321.027 451.273 320.056C453.838 319.085 456.091 317.837 458.033 316.312C460.043 314.787 461.673 313.227 462.921 311.632L469.993 316.832C468.19 319.328 465.937 321.547 463.233 323.488C460.529 325.429 457.513 326.955 454.185 328.064C450.857 329.173 447.251 329.728 443.369 329.728ZM433.281 299.36C436.054 299.36 438.862 299.221 441.705 298.944C444.547 298.597 447.182 298.077 449.609 297.384C452.035 296.621 453.977 295.581 455.433 294.264C456.958 292.947 457.721 291.317 457.721 289.376C457.721 287.435 457.097 285.736 455.849 284.28C454.67 282.755 453.006 281.576 450.857 280.744C448.777 279.843 446.419 279.392 443.785 279.392C439.833 279.392 436.262 280.328 433.073 282.2C429.953 284.003 427.457 286.395 425.585 289.376C423.782 292.357 422.777 295.512 422.569 298.84C423.817 298.979 425.342 299.117 427.145 299.256C429.017 299.325 431.062 299.36 433.281 299.36ZM505.67 329.728C500.262 329.728 495.443 328.549 491.214 326.192C487.054 323.765 483.795 320.368 481.438 316C479.08 311.563 477.902 306.363 477.902 300.4C477.902 294.437 479.08 289.272 481.438 284.904C483.795 280.536 487.054 277.173 491.214 274.816C495.443 272.389 500.262 271.176 505.67 271.176C508.859 271.176 511.806 271.523 514.51 272.216C517.214 272.909 519.64 273.984 521.79 275.44C523.939 276.896 525.776 278.733 527.302 280.952C528.896 283.101 530.179 285.632 531.15 288.544L522.102 291.456C520.784 287.504 518.739 284.488 515.966 282.408C513.262 280.328 509.83 279.288 505.67 279.288C502.272 279.288 499.187 280.085 496.414 281.68C493.71 283.275 491.56 285.632 489.966 288.752C488.44 291.872 487.678 295.755 487.678 300.4C487.678 305.045 488.44 308.963 489.966 312.152C491.56 315.272 493.71 317.629 496.414 319.224C499.187 320.819 502.272 321.616 505.67 321.616C510.454 321.616 514.302 320.368 517.214 317.872C520.126 315.307 522.102 311.979 523.142 307.888L531.982 310.072C531.011 313.816 529.347 317.179 526.99 320.16C524.702 323.141 521.79 325.499 518.254 327.232C514.718 328.896 510.523 329.728 505.67 329.728ZM544.714 329V252.04H554.282V284.072C555.114 281.715 556.466 279.565 558.338 277.624C560.279 275.683 562.567 274.123 565.202 272.944C567.836 271.765 570.644 271.176 573.626 271.176C578.132 271.176 582.05 272.181 585.378 274.192C588.706 276.203 591.271 279.011 593.074 282.616C594.876 286.221 595.778 290.485 595.778 295.408V329H586.314V297.8C586.314 292.045 584.858 287.573 581.946 284.384C579.034 281.125 575.22 279.496 570.506 279.496C567.455 279.496 564.682 280.363 562.186 282.096C559.759 283.76 557.818 286.083 556.362 289.064C554.975 292.045 554.282 295.477 554.282 299.36V329H544.714ZM611.339 329V271.904H620.907V284.072C621.739 281.715 623.091 279.565 624.963 277.624C626.904 275.683 629.192 274.123 631.827 272.944C634.461 271.765 637.269 271.176 640.251 271.176C644.757 271.176 648.675 272.181 652.003 274.192C655.331 276.203 657.896 279.011 659.699 282.616C661.501 286.221 662.403 290.485 662.403 295.408V329H652.939V297.8C652.939 292.045 651.483 287.573 648.571 284.384C645.659 281.125 641.845 279.496 637.131 279.496C634.08 279.496 631.307 280.363 628.811 282.096C626.384 283.76 624.443 286.083 622.987 289.064C621.6 292.045 620.907 295.477 620.907 299.36V329H611.339ZM702.82 329.728C697.412 329.728 692.558 328.549 688.26 326.192C683.961 323.765 680.564 320.368 678.068 316C675.572 311.563 674.324 306.363 674.324 300.4C674.324 294.437 675.606 289.272 678.172 284.904C680.737 280.536 684.204 277.173 688.572 274.816C692.94 272.389 697.793 271.176 703.132 271.176C708.54 271.176 713.428 272.389 717.796 274.816C722.164 277.173 725.596 280.536 728.092 284.904C730.657 289.272 731.94 294.437 731.94 300.4C731.94 306.363 730.622 311.563 727.988 316C725.422 320.368 721.921 323.765 717.484 326.192C713.116 328.549 708.228 329.728 702.82 329.728ZM702.82 321.408C706.078 321.408 709.164 320.645 712.076 319.12C715.057 317.595 717.484 315.272 719.356 312.152C721.228 309.032 722.164 305.115 722.164 300.4C722.164 295.685 721.228 291.803 719.356 288.752C717.553 285.632 715.196 283.309 712.284 281.784C709.372 280.259 706.286 279.496 703.028 279.496C699.7 279.496 696.58 280.259 693.668 281.784C690.825 283.309 688.502 285.632 686.7 288.752C684.966 291.803 684.1 295.685 684.1 300.4C684.1 305.115 684.966 309.032 686.7 312.152C688.433 315.272 690.721 317.595 693.564 319.12C696.406 320.645 699.492 321.408 702.82 321.408ZM744.487 317.456V252.04H754.055V316.624C754.055 318.219 754.506 319.432 755.407 320.264C756.308 321.027 757.383 321.408 758.631 321.408C759.394 321.408 760.122 321.269 760.815 320.992L762.895 328.168C761.162 329.208 759.082 329.728 756.655 329.728C754.714 329.728 752.807 329.312 750.935 328.48C749.063 327.648 747.503 326.331 746.255 324.528C745.076 322.725 744.487 320.368 744.487 317.456ZM798.593 329.728C793.185 329.728 788.332 328.549 784.033 326.192C779.734 323.765 776.337 320.368 773.841 316C771.345 311.563 770.097 306.363 770.097 300.4C770.097 294.437 771.38 289.272 773.945 284.904C776.51 280.536 779.977 277.173 784.345 274.816C788.713 272.389 793.566 271.176 798.905 271.176C804.313 271.176 809.201 272.389 813.569 274.816C817.937 277.173 821.369 280.536 823.865 284.904C826.43 289.272 827.713 294.437 827.713 300.4C827.713 306.363 826.396 311.563 823.761 316C821.196 320.368 817.694 323.765 813.257 326.192C808.889 328.549 804.001 329.728 798.593 329.728ZM798.593 321.408C801.852 321.408 804.937 320.645 807.849 319.12C810.83 317.595 813.257 315.272 815.129 312.152C817.001 309.032 817.937 305.115 817.937 300.4C817.937 295.685 817.001 291.803 815.129 288.752C813.326 285.632 810.969 283.309 808.057 281.784C805.145 280.259 802.06 279.496 798.801 279.496C795.473 279.496 792.353 280.259 789.441 281.784C786.598 283.309 784.276 285.632 782.473 288.752C780.74 291.803 779.873 295.685 779.873 300.4C779.873 305.115 780.74 309.032 782.473 312.152C784.206 315.272 786.494 317.595 789.337 319.12C792.18 320.645 795.265 321.408 798.593 321.408ZM866.78 356.768C861.996 356.768 857.698 355.971 853.884 354.376C850.14 352.851 846.916 350.667 844.212 347.824C841.508 344.981 839.394 341.723 837.868 338.048L846.5 334.2C848.442 338.499 851.146 341.931 854.612 344.496C858.148 347.061 862.204 348.344 866.78 348.344C870.316 348.344 873.436 347.616 876.14 346.16C878.844 344.704 880.959 342.589 882.484 339.816C884.079 337.112 884.876 333.819 884.876 329.936V316.312C883.212 320.403 880.439 323.661 876.556 326.088C872.674 328.515 868.271 329.728 863.348 329.728C858.287 329.728 853.711 328.515 849.62 326.088C845.599 323.592 842.41 320.16 840.052 315.792C837.764 311.355 836.62 306.224 836.62 300.4C836.62 294.576 837.764 289.48 840.052 285.112C842.41 280.675 845.599 277.243 849.62 274.816C853.711 272.389 858.287 271.176 863.348 271.176C868.41 271.176 872.847 272.389 876.66 274.816C880.474 277.173 883.212 280.397 884.876 284.488V271.904H894.444V329.832C894.444 333.715 893.786 337.285 892.468 340.544C891.22 343.872 889.383 346.715 886.956 349.072C884.599 351.499 881.687 353.371 878.22 354.688C874.823 356.075 871.01 356.768 866.78 356.768ZM865.636 321.408C869.103 321.408 872.292 320.576 875.204 318.912C878.116 317.248 880.439 314.856 882.172 311.736C883.975 308.547 884.876 304.768 884.876 300.4C884.876 295.963 883.975 292.219 882.172 289.168C880.439 286.048 878.116 283.656 875.204 281.992C872.292 280.328 869.103 279.496 865.636 279.496C862.17 279.496 858.98 280.328 856.068 281.992C853.156 283.656 850.799 286.048 848.996 289.168C847.263 292.219 846.396 295.963 846.396 300.4C846.396 304.768 847.263 308.547 848.996 311.736C850.799 314.856 853.156 317.248 856.068 318.912C858.98 320.576 862.17 321.408 865.636 321.408ZM911.059 329V271.904H920.627V329H911.059ZM915.843 262.752C913.833 262.752 912.099 262.093 910.643 260.776C909.187 259.459 908.459 257.829 908.459 255.888C908.459 253.877 909.153 252.213 910.539 250.896C911.995 249.579 913.763 248.92 915.843 248.92C917.854 248.92 919.587 249.579 921.043 250.896C922.499 252.213 923.227 253.877 923.227 255.888C923.227 257.829 922.499 259.459 921.043 260.776C919.587 262.093 917.854 262.752 915.843 262.752ZM963.877 329.728C959.439 329.728 955.349 329.035 951.605 327.648C947.93 326.261 944.741 324.32 942.037 321.824C939.333 319.259 937.253 316.208 935.797 312.672C934.341 309.136 933.613 305.184 933.613 300.816C933.613 296.517 934.41 292.565 936.005 288.96C937.669 285.355 939.887 282.235 942.661 279.6C945.503 276.896 948.727 274.816 952.333 273.36C956.007 271.904 959.821 271.176 963.773 271.176C967.309 271.176 970.533 271.661 973.445 272.632C976.357 273.533 978.853 274.816 980.933 276.48C983.082 278.144 984.711 280.051 985.821 282.2C986.999 284.349 987.589 286.707 987.589 289.272C987.589 292.877 986.583 295.893 984.573 298.32C982.562 300.677 979.893 302.549 976.565 303.936C973.237 305.253 969.562 306.189 965.541 306.744C961.589 307.229 957.602 307.403 953.581 307.264C952.471 307.264 951.258 307.229 949.941 307.16C948.623 307.091 947.41 307.021 946.301 306.952C945.191 306.813 944.325 306.709 943.701 306.64C944.117 309.344 945.226 311.84 947.029 314.128C948.831 316.416 951.189 318.219 954.101 319.536C957.013 320.853 960.271 321.512 963.877 321.512C966.65 321.512 969.285 321.027 971.781 320.056C974.346 319.085 976.599 317.837 978.541 316.312C980.551 314.787 982.181 313.227 983.429 311.632L990.501 316.832C988.698 319.328 986.445 321.547 983.741 323.488C981.037 325.429 978.021 326.955 974.693 328.064C971.365 329.173 967.759 329.728 963.877 329.728ZM953.789 299.36C956.562 299.36 959.37 299.221 962.213 298.944C965.055 298.597 967.69 298.077 970.117 297.384C972.543 296.621 974.485 295.581 975.941 294.264C977.466 292.947 978.229 291.317 978.229 289.376C978.229 287.435 977.605 285.736 976.357 284.28C975.178 282.755 973.514 281.576 971.365 280.744C969.285 279.843 966.927 279.392 964.293 279.392C960.341 279.392 956.77 280.328 953.581 282.2C950.461 284.003 947.965 286.395 946.093 289.376C944.29 292.357 943.285 295.512 943.077 298.84C944.325 298.979 945.85 299.117 947.653 299.256C949.525 299.325 951.57 299.36 953.789 299.36ZM1021.6 329.728C1017.44 329.728 1013.77 329.035 1010.58 327.648C1007.39 326.192 1004.79 324.285 1002.78 321.928C1000.84 319.501 999.519 316.832 998.826 313.92L1007.77 311.944C1008.46 314.787 1009.99 317.109 1012.35 318.912C1014.7 320.715 1017.72 321.616 1021.39 321.616C1025.21 321.616 1028.08 320.853 1030.03 319.328C1032.04 317.733 1033.04 315.757 1033.04 313.4C1033.04 311.32 1032.21 309.691 1030.55 308.512C1028.95 307.333 1026.87 306.363 1024.31 305.6C1021.74 304.837 1019 304.075 1016.09 303.312C1013.25 302.549 1010.54 301.579 1007.98 300.4C1005.41 299.152 1003.33 297.488 1001.74 295.408C1000.14 293.328 999.346 290.555 999.346 287.088C999.346 284.107 1000.21 281.437 1001.95 279.08C1003.68 276.653 1006.11 274.747 1009.23 273.36C1012.41 271.904 1016.12 271.176 1020.35 271.176C1024.31 271.176 1027.7 271.835 1030.55 273.152C1033.39 274.4 1035.68 276.133 1037.41 278.352C1039.21 280.571 1040.43 283.101 1041.05 285.944L1032.21 288.336C1031.59 285.771 1030.3 283.621 1028.36 281.888C1026.42 280.155 1023.65 279.288 1020.04 279.288C1016.51 279.288 1013.77 280.016 1011.83 281.472C1009.95 282.928 1009.02 284.765 1009.02 286.984C1009.02 289.203 1009.81 290.936 1011.41 292.184C1013 293.432 1015.05 294.472 1017.55 295.304C1020.11 296.067 1022.81 296.829 1025.66 297.592C1028.57 298.355 1031.27 299.325 1033.77 300.504C1036.33 301.613 1038.41 303.208 1040.01 305.288C1041.6 307.299 1042.4 310.003 1042.4 313.4C1042.4 316.381 1041.53 319.12 1039.8 321.616C1038.14 324.112 1035.75 326.088 1032.63 327.544C1029.51 329 1025.83 329.728 1021.6 329.728Z" fill="#7832F3"/>
<defs>
<linearGradient id="paint0_linear_6_13" x1="85.9835" y1="108.202" x2="269.132" y2="291.35" gradientUnits="userSpaceOnUse">
<stop stop-color="#7832F3"/>
<stop offset="1" stop-color="#5814CD"/>
</linearGradient>
</defs>
</svg>
