<svg width="34" height="23" viewBox="0 0 34 23" fill="none" xmlns="http://www.w3.org/2000/svg">
<g clip-path="url(#clip0_1_123)">
<g clip-path="url(#clip1_1_123)">
<path d="M18 2.66016C16.64 2.66016 15.34 2.92016 14.1 3.44016C12.9133 3.94682 11.8567 4.66349 10.93 5.59016C10.0033 6.51682 9.28667 7.57349 8.78 8.76016C8.26 10.0002 8 11.3002 8 12.6602C8 14.0202 8.26 15.3202 8.78 16.5602C9.28667 17.7468 10.0033 18.8035 10.93 19.7302C11.8567 20.6568 12.9133 21.3735 14.1 21.8802C15.34 22.4002 16.64 22.6602 18 22.6602C19.36 22.6602 20.66 22.4002 21.9 21.8802C23.0867 21.3735 24.1433 20.6568 25.07 19.7302C25.9967 18.8035 26.7133 17.7468 27.22 16.5602C27.74 15.3202 28 14.0202 28 12.6602C28 11.3002 27.7333 10.0068 27.2 8.78016C26.6933 7.58016 25.98 6.52016 25.06 5.60016C24.14 4.68016 23.08 3.96682 21.88 3.46016C20.6533 2.92682 19.36 2.66016 18 2.66016ZM24.62 7.28016C25.2333 8.02682 25.7033 8.85682 26.03 9.77016C26.3567 10.6835 26.5267 11.6268 26.54 12.6002C24.58 12.2135 22.6 12.1202 20.6 12.3202L20.4 11.8802C20.3067 11.6402 20.1533 11.2935 19.94 10.8402L19.84 10.6402C20.7733 10.2935 21.6433 9.83682 22.45 9.27016C23.2567 8.70349 23.98 8.04016 24.62 7.28016ZM18 4.14016C19.04 4.14016 20.0467 4.32349 21.02 4.69016C21.9933 5.05682 22.8733 5.58682 23.66 6.28016C23.0733 7.00016 22.4 7.62016 21.64 8.14016C20.88 8.66016 20.06 9.06682 19.18 9.36016C18.2333 7.62682 17.1733 5.96016 16 4.36016C16.6533 4.21349 17.32 4.14016 18 4.14016ZM14.36 4.94016C15.5067 6.52682 16.5667 8.17349 17.54 9.88016C14.9533 10.5602 12.32 10.9068 9.64 10.9202C9.92 9.61349 10.4733 8.43349 11.3 7.38016C12.1267 6.32682 13.1467 5.51349 14.36 4.94016ZM9.46 12.6802V12.4202C12.4467 12.4335 15.3733 12.0268 18.24 11.2002C18.56 11.8402 18.7933 12.3202 18.94 12.6402L18.6 12.7402C17.16 13.2602 15.8433 14.0035 14.65 14.9702C13.4567 15.9368 12.46 17.0735 11.66 18.3802C10.9533 17.5935 10.41 16.7102 10.03 15.7302C9.65 14.7502 9.46 13.7335 9.46 12.6802ZM18 21.2202C17.0533 21.2202 16.13 21.0668 15.23 20.7602C14.33 20.4535 13.5067 20.0068 12.76 19.4202C13.4933 18.1402 14.44 17.0402 15.6 16.1202C16.76 15.2002 18.0467 14.5202 19.46 14.0802L19.52 14.0602C20.3333 16.1668 20.94 18.3268 21.34 20.5402C20.2733 20.9935 19.16 21.2202 18 21.2202ZM22.78 19.7602C22.4067 17.6802 21.8533 15.6468 21.12 13.6602C22.92 13.3935 24.6933 13.5135 26.44 14.0202C26.2533 15.1935 25.8433 16.2768 25.21 17.2702C24.5767 18.2635 23.7667 19.0935 22.78 19.7602Z" fill="black"/>
</g>
</g>
<defs>
<clipPath id="clip0_1_123">
<rect width="34" height="23" fill="white"/>
</clipPath>
<clipPath id="clip1_1_123">
<rect width="20" height="40" fill="white" transform="matrix(1 0 0 -1 8 32.6602)"/>
</clipPath>
</defs>
</svg>
