<svg width="259" height="259" viewBox="0 0 259 259" fill="none" xmlns="http://www.w3.org/2000/svg">
<path d="M145.707 258.282C173.262 254.773 199.98 242.502 221.131 221.351C244.277 198.205 256.785 168.51 258.783 138.3C258.805 137.932 258.595 137.915 258.517 138.221C256.117 150.274 246.056 181.405 213.621 213.839C185.435 242.026 161.333 253.55 145.659 257.994C145.371 258.092 145.444 258.307 145.707 258.282ZM212.822 200.306C235.367 177.762 253.956 147.104 256.608 120.122C257.348 112.753 256.798 104.48 254.329 95.0923C252.909 89.69 250.803 83.6897 248.406 78.1198C248.282 77.8551 248.068 77.8805 248.14 78.245C254.638 112.3 238.914 152.641 197.716 193.838C168.596 222.959 116.423 257.184 86.3754 251.67C86.0903 251.627 86.0399 251.818 86.3024 251.933C122.019 264.795 169.994 243.134 212.822 200.306ZM165.582 165.057C118.695 211.944 57.025 232.062 38.1121 221.17C37.847 221.004 37.7521 221.194 37.9459 221.387C42.9628 226.404 49.9393 232.377 55.1006 235.81C57.6046 237.49 62.5899 239.07 67.7027 239.191C90.8907 239.672 135.779 227.948 184.801 178.927C251.591 112.137 244.614 74.6169 240.416 64.182C237.414 56.7194 229.113 46.108 221.169 38.1647C219.247 36.2426 217.664 34.7553 216.084 33.3206C215.839 33.076 215.678 33.1976 215.867 33.485C230.432 54.7255 214.894 115.745 165.582 165.057ZM7.49222 173.27C10.1375 181.289 16.1547 193.262 19.925 198.803C21.5316 201.186 22.6549 201.979 24.843 202.768C42.3863 209.071 77.3079 210.393 143.614 144.087C184.066 103.635 218.134 51.6026 205.09 28.3763C202.689 24.1003 199.214 20.5252 193.26 16.9799C186.607 13.018 177.898 9.34889 171.419 7.13582C171.207 7.06453 171.104 7.20979 171.297 7.35192C195.875 30.3461 160.383 95.7643 126.914 129.233C90.6612 165.486 30.4628 197.531 12.2245 179.293C10.4721 177.54 9.08196 175.425 7.71054 173.148C7.58935 172.936 7.41915 173.051 7.49222 173.27ZM121.566 0.786673C122.554 1.005 123.39 1.45679 124.257 2.3234C134.432 12.4981 142.071 44.9587 92.5001 94.5298C56.0769 130.953 14.9655 140.939 6.37254 132.346C3.30089 129.275 1.33599 124.954 0.738502 119.167C0.690383 118.836 0.497012 118.883 0.474735 119.188C-0.247063 127.93 -0.082654 136.79 0.974202 145.474C1.4554 149.6 2.36478 152.772 3.58738 153.995C21.3949 171.802 64.2578 151.874 106.008 110.124C150.494 65.6376 170.526 19.4487 157.764 6.68626C153.202 2.12512 148.764 1.23803 139.06 0.617815C132.754 0.207905 127.231 0.262253 121.587 0.522457C121.327 0.547408 121.323 0.742564 121.566 0.786673ZM97.7558 4.2522C75.7971 9.75212 55.1719 21.0135 37.9837 38.2017C20.6757 55.5097 9.09755 76.7787 3.76605 99.0047C2.17675 105.681 1.88892 110.046 4.50923 112.666C12.2334 120.39 38.5901 110.644 70.6162 78.6179C102.31 46.9243 117.795 13.2453 109.039 4.48879C106.948 2.3987 103.659 2.76316 97.7558 4.2522Z" fill="url(#paint0_linear_3_5)"/>
<defs>
<linearGradient id="paint0_linear_3_5" x1="37.9835" y1="38.2019" x2="221.132" y2="221.35" gradientUnits="userSpaceOnUse">
<stop stop-color="#7832F3"/>
<stop offset="1" stop-color="#5814CD"/>
</linearGradient>
</defs>
</svg>
